HIERARCHY
ROOT Hips
{
  OFFSET -4.35178 90.3298 111.633
  CHANNELS 6 Xposition Yposition Zposition Zrotation Xrotation Yrotation
  JOINT LeftUpLeg
  {
    OFFSET 0.103456 1.85784 10.5485
    CHANNELS 6 Xposition Yposition Zposition Zrotation Xrotation Yrotation
    JOINT LeftLeg
    {
      OFFSET 43.5 -4.2e-05 0
      CHANNELS 6 Xposition Yposition Zposition Zrotation Xrotation Yrotation
      JOINT LeftFoot
      {
        OFFSET 42.3722 1.9e-05 0
        CHANNELS 6 Xposition Yposition Zposition Zrotation Xrotation Yrotation
        JOINT LeftToe
        {
          OFFSET 17.3 0 0
          CHANNELS 6 Xposition Yposition Zposition Zrotation Xrotation Yrotation
          End Site
          {
            OFFSET 0 0 0
          }
        }
      }
    }
  }
  JOINT RightUpLeg
  {
    OFFSET 0.103456 1.85782 -10.5485
    CHANNELS 6 Xposition Yposition Zposition Zrotation Xrotation Yrotation
    JOINT RightLeg
    {
      OFFSET 43.5 -2.7e-05 0
      CHANNELS 6 Xposition Yposition Zposition Zrotation Xrotation Yrotation
      JOINT RightFoot
      {
        OFFSET 42.3723 0 0
        CHANNELS 6 Xposition Yposition Zposition Zrotation Xrotation Yrotation
        JOINT RightToe
        {
          OFFSET 17.3 0 1.7e-05
          CHANNELS 6 Xposition Yposition Zposition Zrotation Xrotation Yrotation
          End Site
          {
            OFFSET 0 0 0
          }
        }
      }
    }
  }
  JOINT Spine
  {
    OFFSET 6.90197 -2.60373 0
    CHANNELS 6 Xposition Yposition Zposition Zrotation Xrotation Yrotation
    JOINT Spine1
    {
      OFFSET 12.5881 0 0
      CHANNELS 6 Xposition Yposition Zposition Zrotation Xrotation Yrotation
      JOINT Spine2
      {
        OFFSET 12.3432 -1.8e-05 0
        CHANNELS 6 Xposition Yposition Zposition Zrotation Xrotation Yrotation
        JOINT Neck
        {
          OFFSET 25.8329 2.3e-05 0
          CHANNELS 6 Xposition Yposition Zposition Zrotation Xrotation Yrotation
          JOINT Head
          {
            OFFSET 11.7666 0 0
            CHANNELS 6 Xposition Yposition Zposition Zrotation Xrotation Yrotation
            End Site
            {
              OFFSET 0 0 0
            }
          }
        }
        JOINT LeftShoulder
        {
          OFFSET 19.7459 -1.48035 6.0001
          CHANNELS 6 Xposition Yposition Zposition Zrotation Xrotation Yrotation
          JOINT LeftArm
          {
            OFFSET 11.2841 1.8e-05 -2e-05
            CHANNELS 6 Xposition Yposition Zposition Zrotation Xrotation Yrotation
            JOINT LeftForeArm
            {
              OFFSET 33 -1.3e-05 1.9e-05
              CHANNELS 6 Xposition Yposition Zposition Zrotation Xrotation Yrotation
              JOINT LeftHand
              {
                OFFSET 25.2 3.2e-05 1.1e-05
                CHANNELS 6 Xposition Yposition Zposition Zrotation Xrotation Yrotation
                End Site
                {
                  OFFSET 0 0 0
                }
              }
            }
          }
        }
        JOINT RightShoulder
        {
          OFFSET 19.7461 -1.48036 -6.00008
          CHANNELS 6 Xposition Yposition Zposition Zrotation Xrotation Yrotation
          JOINT RightArm
          {
            OFFSET 11.2841 0 0
            CHANNELS 6 Xposition Yposition Zposition Zrotation Xrotation Yrotation
            JOINT RightForeArm
            {
              OFFSET 33.0001 1.6e-05 0
              CHANNELS 6 Xposition Yposition Zposition Zrotation Xrotation Yrotation
              JOINT RightHand
              {
                OFFSET 25.1998 0.000123 0.000432
                CHANNELS 6 Xposition Yposition Zposition Zrotation Xrotation Yrotation
                End Site
                {
                  OFFSET 0 0 0
                }
              }
            }
          }
        }
      }
    }
  }
}
MOTION
Frames:	5
Frame Time:	0.0333333
-47.0187 88.1338 -32.8655 78.6599 41.143 10.6754 0.103456 1.85784 10.5485 17.4521 18.8952 163.309 43.5 -4.2e-05 1e-05 -36.0253 -12.2853 -5.94245 42.3722 1.9e-05 7.10543e-15 64.6241 23.4852 -5.71924 17.3 3.55271e-15 3e-06 21.4546 -1e-06 0.003093 0.103456 1.85782 -10.5485 -27.4193 -9.23933 174.562 43.5 -2.7e-05 4e-06 -29.0733 6.36485 0.250994 42.3723 -7.10543e-15 1e-05 62.2534 11.6863 -4.33075 17.3 -6e-06 1.7e-05 21.4546 -1.9e-05 -0.003116 6.90197 -2.60373 -3e-06 9.21223 -1.13462 1.4572 12.5881 1e-05 8e-06 8.45209 -1.90182 3.12875 12.3432 -1.8e-05 -5e-06 8.14604 -1.57961 3.25549 25.8329 2.3e-05 7e-06 6.39132 -3.86226 -5.69056 11.7666 -8e-06 -6e-06 -16.3296 -9.05857 6.7943 19.7459 -1.48035 6.0001 -177.598 6.02297 -88.357 11.2841 1.8e-05 -2e-05 -23.0123 -10.1386 64.6449 33 -1.3e-05 1.9e-05 -109.235 -24.6948 -6.78478 25.2 3.2e-05 1.1e-05 -16.3342 23.4475 1.47292 19.7461 -1.48036 -6.00008 -172.474 7.98521 79.9338 11.2841 0 -1e-06 -17.669 -14.2732 -41.9897 33.0001 1.6e-05 -1e-06 -85.3115 -1.94654 20.6599 25.1998 0.000123 0.000432 -22.4899 -17.1035 11.3176 
-49.1002 88.3253 -26.3216 78.6338 37.0643 10.4912 0.103456 1.85784 10.5485 17.368 21.2586 164.857 43.5 -4.2e-05 1e-05 -42.079 -11.2728 -7.78115 42.3722 1.9e-05 0 61.3551 31.4738 -13.1092 17.3 -7.10543e-15 3e-06 21.4546 -1e-06 0.003093 0.103456 1.85782 -10.5485 -23.4469 -15.8978 176.79 43.5 -2.7e-05 4e-06 -20.2096 5.15226 3.7045 42.3723 0 1e-05 57.5496 11.8515 1.78173 17.3 -6e-06 1.7e-05 21.4546 -1.9e-05 -0.003116 6.90197 -2.60373 -3e-06 9.07017 -1.11241 1.73653 12.5881 1e-05 8e-06 8.16781 -1.81687 3.67879 12.3432 -1.8e-05 -5e-06 7.85619 -1.46535 3.79891 25.8329 2.3e-05 7e-06 6.22026 -3.47913 -6.07884 11.7666 -8e-06 -6e-06 -14.5275 -7.91979 6.42466 19.7459 -1.48035 6.0001 -178.119 5.28201 -88.3836 11.2841 1.8e-05 -2e-05 -24.8305 -7.73045 63.581 33 -1.3e-05 1.9e-05 -106.986 -25.7939 -8.43635 25.2 3.2e-05 1.1e-05 -16.2397 26.1466 0.717807 19.7461 -1.48036 -6.00008 -172.403 8.75523 79.1496 11.2841 0 -1e-06 -16.3335 -13.5728 -39.8953 33.0001 1.6e-05 -1e-06 -83.4712 -1.79981 20.3952 25.1998 0.000123 0.000432 -20.5481 -15.945 10.3681 
-50.892 87.7241 -19.6849 77.6382 33.3653 11.0616 0.103456 1.85784 10.5485 14.1855 23.6292 166.417 43.5 -4.2e-05 1e-05 -53.0224 -11.3808 -6.92464 42.3722 1.9e-05 0 65.6491 42.3353 -21.6414 17.3 -3.55271e-15 3e-06 21.4546 -1e-06 0.003093 0.103456 1.85782 -10.5485 -21.1202 -21.0229 177.517 43.5 -2.7e-05 4e-06 -21.5595 6.08288 5.867 42.3723 0 1e-05 53.2984 8.41172 0.106003 17.3 -6e-06 1.7e-05 21.4546 -1.9e-05 -0.003116 6.90197 -2.60373 -3e-06 9.13774 -0.984175 1.8351 12.5881 1e-05 8e-06 8.29534 -1.54063 3.85387 12.3432 -1.8e-05 -5e-06 7.97777 -1.17698 3.95659 25.8329 2.3e-05 7e-06 6.39041 -3.50649 -6.37697 11.7666 -8e-06 -6e-06 -14.3847 -7.37409 6.49494 19.7459 -1.48035 6.0001 -178.595 4.59184 -87.9594 11.2841 1.8e-05 -2e-05 -25.5176 -5.69508 61.478 33 -1.3e-05 1.9e-05 -102.494 -26.3178 -9.22599 25.2 3.2e-05 1.1e-05 -16.7324 29.1363 -0.190412 19.7461 -1.48036 -6.00008 -172.691 8.67516 78.3038 11.2841 0 -1e-06 -16.6197 -12.2018 -38.686 33.0001 1.6e-05 -1e-06 -79.786 -1.5901 19.8179 25.1998 0.000123 0.000432 -18.6378 -14.5767 9.24401 
-52.7575 86.0334 -13.3638 75.5423 29.5284 11.5086 0.103456 1.85784 10.5485 9.69223 25.1989 170.305 43.5 -4.2e-05 1e-05 -66.3161 -10.8393 -6.42417 42.3722 1.9e-05 -7.10543e-15 73.7328 44.1529 -26.6993 17.3 0 3e-06 21.4546 -1e-06 0.003093 0.103456 1.85782 -10.5485 -19.3535 -23.6972 177.731 43.5 -2.7e-05 4e-06 -28.6754 6.91629 6.15176 42.3723 1.42109e-14 1e-05 63.2931 -5.39803 -5.25967 17.3 -6e-06 1.7e-05 21.4546 -1.9e-05 -0.003116 6.90197 -2.60373 -3e-06 9.60142 -0.732795 1.96587 12.5881 1e-05 8e-06 9.20661 -0.990409 4.07519 12.3432 -1.8e-05 -5e-06 8.87828 -0.600442 4.14398 25.8329 2.3e-05 7e-06 6.25607 -4.01904 -6.56579 11.7666 -8e-06 -6e-06 -15.5063 -7.28676 6.31879 19.7459 -1.48035 6.0001 -179.203 3.80418 -87.4706 11.2841 1.8e-05 -2e-05 -24.9914 -4.62969 58.5239 33 -1.3e-05 1.9e-05 -96.046 -25.7356 -8.40493 25.2 3.2e-05 1.1e-05 -17.3861 32.1118 -1.09278 19.7461 -1.48036 -6.00008 -173.165 7.21573 77.8824 11.2841 -1.77636e-15 -1e-06 -17.9836 -9.90823 -38.1009 33.0001 1.6e-05 -1e-06 -74.9609 -0.469657 18.9151 25.1998 0.000123 0.000432 -16.659 -12.3296 7.41983 
-54.3441 83.9545 -7.6672 73.5509 26.006 11.3999 0.103456 1.85784 10.5485 3.34412 25.5313 176.703 43.5 -4.2e-05 1e-05 -79.5657 -10.3816 -6.43853 42.3722 1.9e-05 0 77.2419 43.5563 -24.2875 17.3 0 3e-06 21.4546 -1e-06 0.003093 0.103456 1.85782 -10.5485 -20.0885 -23.3224 178.525 43.5 -2.7e-05 4e-06 -38.6555 9.56521 3.52829 42.3723 1.42109e-14 1e-05 73.8135 -11.734 -10.1054 17.3 -6e-06 1.7e-05 21.4546 -1.9e-05 -0.003116 6.90197 -2.60373 -3e-06 10.1252 -0.425133 2.22012 12.5881 1e-05 8e-06 10.232 -0.299615 4.52748 12.3432 -1.8e-05 -5e-06 9.88911 0.132351 4.55317 25.8329 2.3e-05 7e-06 5.76468 -5.09469 -6.551 11.7666 -8e-06 -6e-06 -15.6339 -7.28096 5.36366 19.7459 -1.48035 6.0001 179.639 2.67879 -86.3868 11.2841 1.8e-05 -2e-05 -23.7156 -4.93999 55.3589 33 -1.3e-05 1.9e-05 -86.9862 -24.0725 -5.69958 25.2 3.2e-05 1.1e-05 -15.6493 32.9936 -1.02146 19.7461 -1.48036 -6.00008 -174.274 4.60177 77.4312 11.2841 0 -1e-06 -20.5481 -8.20197 -37.0162 33.0001 1.6e-05 -1e-06 -68.4059 0.144412 17.7194 25.1998 0.000123 0.000432 -15.5218 -11.1976 6.42234 
